<mxfile host="app.diagrams.net" agent="Mozilla/5.0 (Windows NT 10.0; Win64; x64; rv:132.0) Gecko/20100101 Firefox/132.0" version="24.8.4">
  <diagram name="Page-1" id="U3LojaI9JN6l6cQF8kK6">
    <mxGraphModel dx="1434" dy="754" grid="1" gridSize="10" guides="1" tooltips="1" connect="1" arrows="1" fold="1" page="1" pageScale="1" pageWidth="827" pageHeight="1169" math="0" shadow="0">
      <root>
        <mxCell id="0" />
        <mxCell id="1" parent="0" />
        <mxCell id="dKHJKrK5DJ_SS8PQG8u8-12" style="edgeStyle=orthogonalEdgeStyle;rounded=0;orthogonalLoop=1;jettySize=auto;html=1;exitX=0.5;exitY=0.5;exitDx=0;exitDy=0;exitPerimeter=0;entryX=0;entryY=0.5;entryDx=0;entryDy=0;" edge="1" parent="1" source="dKHJKrK5DJ_SS8PQG8u8-2" target="dKHJKrK5DJ_SS8PQG8u8-7">
          <mxGeometry relative="1" as="geometry">
            <Array as="points">
              <mxPoint x="480" y="180" />
            </Array>
          </mxGeometry>
        </mxCell>
        <mxCell id="dKHJKrK5DJ_SS8PQG8u8-13" style="edgeStyle=orthogonalEdgeStyle;rounded=0;orthogonalLoop=1;jettySize=auto;html=1;exitX=0.5;exitY=0;exitDx=0;exitDy=0;exitPerimeter=0;" edge="1" parent="1" source="dKHJKrK5DJ_SS8PQG8u8-2">
          <mxGeometry relative="1" as="geometry">
            <mxPoint x="479.5" y="320" as="targetPoint" />
            <mxPoint x="339.5" y="180" as="sourcePoint" />
            <Array as="points">
              <mxPoint x="135" y="160" />
              <mxPoint x="390" y="160" />
              <mxPoint x="390" y="320" />
            </Array>
          </mxGeometry>
        </mxCell>
        <mxCell id="dKHJKrK5DJ_SS8PQG8u8-2" value="Admin (group 40)" style="shape=umlActor;verticalLabelPosition=bottom;verticalAlign=top;html=1;outlineConnect=0;" vertex="1" parent="1">
          <mxGeometry x="120" y="200" width="30" height="60" as="geometry" />
        </mxCell>
        <mxCell id="dKHJKrK5DJ_SS8PQG8u8-3" value="&lt;div&gt;End User&lt;br&gt;&lt;/div&gt;" style="shape=umlActor;verticalLabelPosition=bottom;verticalAlign=top;html=1;outlineConnect=0;" vertex="1" parent="1">
          <mxGeometry x="120" y="360" width="30" height="60" as="geometry" />
        </mxCell>
        <mxCell id="dKHJKrK5DJ_SS8PQG8u8-4" value="External Data Source (database)" style="shape=umlActor;verticalLabelPosition=bottom;verticalAlign=top;html=1;outlineConnect=0;" vertex="1" parent="1">
          <mxGeometry x="120" y="510" width="30" height="60" as="geometry" />
        </mxCell>
        <object placeholders="1" c4Name="Software Engineering Methods grp40cswk" c4Type="SystemScopeBoundary" c4Application="Group 40 Coursework" label="&lt;font style=&quot;font-size: 16px&quot;&gt;&lt;b&gt;&lt;div style=&quot;text-align: left&quot;&gt;%c4Name%&lt;/div&gt;&lt;/b&gt;&lt;/font&gt;&lt;div style=&quot;text-align: left&quot;&gt;[%c4Application%]&lt;/div&gt;" id="dKHJKrK5DJ_SS8PQG8u8-6">
          <mxCell style="rounded=1;fontSize=11;whiteSpace=wrap;html=1;dashed=1;arcSize=20;fillColor=none;strokeColor=#666666;fontColor=#333333;labelBackgroundColor=none;align=left;verticalAlign=bottom;labelBorderColor=none;spacingTop=0;spacing=10;dashPattern=8 4;metaEdit=1;rotatable=0;perimeter=rectanglePerimeter;noLabel=0;labelPadding=0;allowArrows=0;connectable=0;expand=0;recursiveResize=0;editable=1;pointerEvents=0;absoluteArcSize=1;points=[[0.25,0,0],[0.5,0,0],[0.75,0,0],[1,0.25,0],[1,0.5,0],[1,0.75,0],[0.75,1,0],[0.5,1,0],[0.25,1,0],[0,0.75,0],[0,0.5,0],[0,0.25,0]];" vertex="1" parent="1">
            <mxGeometry x="330" y="90" width="370" height="610" as="geometry" />
          </mxCell>
        </object>
        <mxCell id="dKHJKrK5DJ_SS8PQG8u8-7" value="Generate Report" style="ellipse;whiteSpace=wrap;html=1;" vertex="1" parent="1">
          <mxGeometry x="445" y="170" width="140" height="70" as="geometry" />
        </mxCell>
        <mxCell id="dKHJKrK5DJ_SS8PQG8u8-8" value="Export Report" style="ellipse;whiteSpace=wrap;html=1;" vertex="1" parent="1">
          <mxGeometry x="445" y="300" width="140" height="70" as="geometry" />
        </mxCell>
        <mxCell id="dKHJKrK5DJ_SS8PQG8u8-9" value="&lt;div&gt;View Report&lt;/div&gt;" style="ellipse;whiteSpace=wrap;html=1;" vertex="1" parent="1">
          <mxGeometry x="445" y="430" width="140" height="70" as="geometry" />
        </mxCell>
        <mxCell id="dKHJKrK5DJ_SS8PQG8u8-10" value="&lt;div&gt;Manage Data&lt;/div&gt;" style="ellipse;whiteSpace=wrap;html=1;" vertex="1" parent="1">
          <mxGeometry x="445" y="555" width="140" height="70" as="geometry" />
        </mxCell>
        <mxCell id="dKHJKrK5DJ_SS8PQG8u8-14" style="edgeStyle=orthogonalEdgeStyle;rounded=0;orthogonalLoop=1;jettySize=auto;html=1;entryX=0.064;entryY=0.214;entryDx=0;entryDy=0;entryPerimeter=0;" edge="1" parent="1" source="dKHJKrK5DJ_SS8PQG8u8-2" target="dKHJKrK5DJ_SS8PQG8u8-10">
          <mxGeometry relative="1" as="geometry">
            <mxPoint x="480" y="590" as="targetPoint" />
            <Array as="points">
              <mxPoint x="135" y="190" />
              <mxPoint x="430" y="190" />
              <mxPoint x="430" y="570" />
            </Array>
          </mxGeometry>
        </mxCell>
        <mxCell id="dKHJKrK5DJ_SS8PQG8u8-15" style="edgeStyle=orthogonalEdgeStyle;rounded=0;orthogonalLoop=1;jettySize=auto;html=1;entryX=0.214;entryY=0.914;entryDx=0;entryDy=0;entryPerimeter=0;" edge="1" parent="1" source="dKHJKrK5DJ_SS8PQG8u8-3" target="dKHJKrK5DJ_SS8PQG8u8-7">
          <mxGeometry relative="1" as="geometry">
            <Array as="points">
              <mxPoint x="135" y="340" />
              <mxPoint x="410" y="340" />
              <mxPoint x="410" y="260" />
              <mxPoint x="475" y="260" />
            </Array>
          </mxGeometry>
        </mxCell>
        <mxCell id="dKHJKrK5DJ_SS8PQG8u8-16" style="edgeStyle=orthogonalEdgeStyle;rounded=0;orthogonalLoop=1;jettySize=auto;html=1;entryX=0.071;entryY=0.286;entryDx=0;entryDy=0;entryPerimeter=0;exitX=0.5;exitY=0;exitDx=0;exitDy=0;exitPerimeter=0;" edge="1" parent="1" source="dKHJKrK5DJ_SS8PQG8u8-3" target="dKHJKrK5DJ_SS8PQG8u8-9">
          <mxGeometry relative="1" as="geometry">
            <Array as="points">
              <mxPoint x="135" y="330" />
              <mxPoint x="380" y="330" />
              <mxPoint x="380" y="440" />
            </Array>
          </mxGeometry>
        </mxCell>
        <mxCell id="dKHJKrK5DJ_SS8PQG8u8-20" value="" style="edgeStyle=none;html=1;endArrow=none;verticalAlign=bottom;rounded=0;exitX=0.5;exitY=0;exitDx=0;exitDy=0;exitPerimeter=0;" edge="1" parent="1" source="dKHJKrK5DJ_SS8PQG8u8-4">
          <mxGeometry width="160" relative="1" as="geometry">
            <mxPoint x="150" y="539.5" as="sourcePoint" />
            <mxPoint x="330" y="510" as="targetPoint" />
          </mxGeometry>
        </mxCell>
        <mxCell id="dKHJKrK5DJ_SS8PQG8u8-22" value="&lt;div&gt;Actors&lt;/div&gt;" style="rounded=0;whiteSpace=wrap;html=1;" vertex="1" parent="1">
          <mxGeometry x="100" y="100" width="60" height="30" as="geometry" />
        </mxCell>
        <mxCell id="dKHJKrK5DJ_SS8PQG8u8-23" value="&lt;div&gt;System (boundary)&lt;/div&gt;" style="rounded=0;whiteSpace=wrap;html=1;" vertex="1" parent="1">
          <mxGeometry x="445" y="10" width="120" height="60" as="geometry" />
        </mxCell>
        <mxCell id="dKHJKrK5DJ_SS8PQG8u8-27" value="Use Cases" style="rounded=0;whiteSpace=wrap;html=1;" vertex="1" parent="1">
          <mxGeometry x="462.5" y="110" width="105" height="40" as="geometry" />
        </mxCell>
      </root>
    </mxGraphModel>
  </diagram>
</mxfile>
